<?xml version="1.0" encoding="UTF-8"?>
<svg id="Layer_1" xmlns="http://www.w3.org/2000/svg" version="1.1" viewBox="0 0 1024 1024">
  <!-- Generator: Adobe Illustrator 30.4.0, SVG Export Plug-In . SVG Version: 2.1.4 Build 226)  -->
  <defs>
    <style>
      .st0 {
        fill: #bfad8a;
        stroke: #bfad8a;
        stroke-width: 10px;
      }

      .st0, .st1, .st2 {
        stroke-miterlimit: 10;
      }

      .st3 {
        fill: #9b2d20;
        font-family: Thwack, Thwack;
        font-size: 441px;
      }

      .st1 {
        stroke-width: 6px;
      }

      .st1, .st2 {
        stroke: #3c3020;
      }

      .st1, .st2, .st4 {
        fill: #3c3020;
      }

      .st2 {
        stroke-width: 16.5px;
      }

      .st5 {
        fill: #ddd3b0;
      }
    </style>
  </defs>
  <rect class="st5" width="1024" height="1024"/>
  <line class="st5" x1="171.86" y1="172.76" x2="702.95" y2="171.41"/>
  <line class="st0" x1="1.59" y1="65.4" x2="1024" y2="65.4"/>
  <line class="st0" x1=".8" y1="115.17" x2="1023.2" y2="115.17"/>
  <line class="st0" x1=".8" y1="164.94" x2="1023.2" y2="164.94"/>
  <line class="st0" x1="1.59" y1="214.04" x2="1024" y2="214.04"/>
  <line class="st0" x1="1.59" y1="263.14" x2="1024" y2="263.14"/>
  <line class="st0" x1="1.99" y1="415.83" x2="1024.4" y2="415.83"/>
  <line class="st0" x1="1.2" y1="465.6" x2="1023.6" y2="465.6"/>
  <line class="st0" x1="1.2" y1="515.38" x2="1023.6" y2="515.38"/>
  <line class="st0" x1="1.99" y1="564.47" x2="1024.4" y2="564.47"/>
  <line class="st0" x1="1.99" y1="613.57" x2="1024.4" y2="613.57"/>
  <line class="st0" x1="1.2" y1="760.86" x2="1023.6" y2="760.86"/>
  <line class="st0" x1=".4" y1="810.64" x2="1022.8" y2="810.64"/>
  <line class="st0" x1=".4" y1="860.41" x2="1022.8" y2="860.41"/>
  <line class="st0" x1="1.2" y1="909.51" x2="1023.6" y2="909.51"/>
  <line class="st0" x1="1.2" y1="958.6" x2="1023.6" y2="958.6"/>
  <text class="st3" transform="translate(86.22 699.3)"><tspan x="0" y="0">TLB</tspan></text>
  <line class="st2" x1="863.76" y1="18.3" x2="180.24" y2="18.3"/>
  <line class="st1" x1="46.74" y1="847.07" x2="46.74" y2="177.19"/>
  <path class="st4" d="M-17.73-220.62"/>
  <g>
    <path class="st4" d="M27.12,188.11H10s.46-17.86.46-17.86c.55-4.42-.11-8.58-.09-12.97s.72-8.09-.02-12.39c-.24-1.41.93-3.15-.04-4.88-.45-.79.3-2.28.31-3.15l.26-18.97c.03-2.48-.11-5.16.51-7.56l2.04-7.91c1.04-4.03,3.91-7.77,5.71-11.68.77-.44,1.59-1.33,2.24-2.1,4.05-4.78,9.34-8.9,15.41-10.51l5.72-1.52c1.93-.51,3.35-.16,5.29-.08l6.89.28,6.52,2.81c1.53.66,2.41,1.18,3.72,2.14s3.23,1.37,3.67,3.38c2.3.86,3.33,2.7,4.3,4.74s2.55,3.9,3.2,6.27l.16,4.08c1.74,6.08-2.59,18.35-9.51,21.57-2.65,1.23-5,3.08-8.03,3.81-9.36,2.25-20.35-4.13-20.08-13.87.07-2.51-.04-4.75,1.22-7.16,1.57-3.01,4.57-6.04,7.88-7.48,2.95-1.28,6.28-1.27,9.48-1.6.06-1.72-1.47-2.26-2.61-2.95-4.21-2.56-10.67-2.46-15.29-.22-6.31,3.05-9.04,7.88-10.2,14.67l-1.22,7.13-.33,20.62c-.55,5.88-.11,11.53-.16,17.4l-.2,24.42c-.02,2.95.38,5.68-.19,8.67l.12,2.86Z"/>
    <path class="st4" d="M49.51,188.12h-5.8s.38-16.08.38-16.08l.2-5.42.24-21.04c.04-3.2,1.31-5.49,2.78-8.16,1.36-2.47,3.57-5.16,6.92-4.51,1.74.33,3.79,2.7,3.8,4.46l.05,6.9c-.93,1.08-1.95-.98-2.59-1.09-2.5-.43-4.4,2.9-4.62,5.39l-.72,8.21c-.27,3.08-.41,5.98-.43,9.01l-.21,22.33Z"/>
    <path class="st4" d="M99.84,39.19c6.08-4.47,14.16-5.47,20.07-.68,2.23,1.81,4.37,4.43,4.62,7.15.29,3.22,1.12,6.26.22,9.33-3.31,11.26-10.24,15.58-21.08,18.28-1.96.49-3.07.21-5-.12-3.62-.62-7.37-.78-10.66-2.66-2.08-1.18-3.49-3.27-5.31-4.58-2.72-1.96-4.02-4.32-5.23-7.27s-3.08-5.79-3.09-9.1v-12.73c0-1.1,1.16-1.98,1.41-2.79,1.84-6,6.39-11.46,11.43-15.24l4.08-3.06c4.52-3.39,14.6-6.56,20.24-5.26,1.43.33,2.36-.16,3.7-.16l26.39-.02c1.24,0,2.16.08,3.44.05l10.8-.3c1.42-.04,2.49-.02,3.91,0l13.16.3c2.4.06,4.37.48,6.8-.03l6.51-.11.05,16.5-24.62.14c-2.53.01-4.67.88-7.32-.14-.58-.22-1.97.47-2.76.48l-32.15.25c-3.17.02-5.95.38-9.14.03-3.77-.42-10.56,1.02-14.09,3.16-2.27,1.37-4.1,3.13-6.03,5.02-5.5,5.39-3.41,15.44,1.1,18.98,3.08,2.42,8.49,4.28,8.84,1.98-4.9-4.12-5.35-13.68-.27-17.41Z"/>
    <path class="st4" d="M112.66,111.35c-7.17-4.42-13.5-3.74-16.16-7.63-.75-1.09-2.14-1.45-3.25-.6-1.43,1.1-2.97,1.23-4.6,1.67-1.86.5-3.45,1.45-5.64.14,2.86-2.26,2.82-4.85,2.35-7.93-.34-2.19-.08-4.27-1.52-6.3-1.65-2.32-2.73-5.07-4.27-7.5l-4.03-6.32-3.34-3.47c-2.8-2.91-5.61-5.65-8.59-8.47l-8.51-8.05-4.08-3.51c-.93-.8-2.15-1.05-2.99-1.72-3.56-2.8-7.95-3.85-11.59-6.03l-11.54-6.93c-1.21-.73-2.12-2.14-3.35-2.79-2.44-1.28-3.57-3.35-5.15-5.38-4.4-5.64-4.08-12.47,1.89-16.59.77-.53,2.5-1.16,3.37-1.22,5.41-.37,9.4,2.86,12.49,6.73,1.68,2.11,3.85,3.5,4.68,6.24.48,1.58,1.87,2.57,2.78,3.85,3.98,5.56,5.74,12.23,8.5,15.76,1.24,1.59,2.73,2.99,3.62,4.84,1.63,3.39,9.42,9.9,13.46,13.66,2.03,1.89,3.61,4.18,6.06,5.85l11.5,7.84c5.38,3.67,17.78,8.88,21.92,4.35l.45-1.2c.16-.42,1.09-.35,1.42-.04,1.45,1.37-1.53,6.95-3.3,10.55l3.34,5.23,1.91,5.66c.93,2.77,1.4,5.45,3.13,7.89.19.27.11.82.09,1.03s-.63.62-1.02.38Z"/>
    <path class="st4" d="M68.19,50.94c-.01,1.44,1.28,4.91-.35,5.22s-1.01-3.9-4.09-6.55c-.58-2.92-2.25-5.22-3.48-7.83l-2.73-5.8-3.92-10.29c-.73-1.91-.23-4.35-.03-6.43.29-3.03,2.11-6.04,4.89-7.3,2.09-.94,4.87-.17,6.59,1.28,5.31,4.49,4.14,13.07,3.62,20.62l-.4,5.76-.1,11.31Z"/>
    <path class="st4" d="M57.13,66.16c.17,4.21-5.26-.51-13.24.54l-12.12,1.6c-6.07.8-13.21,2.16-17.52-1.89-1.77-1.67-2.36-5.11-.79-6.92,3.18-3.68,7.85-4.49,12.29-4.98,4.87-.53,13.4,2.29,18.48,4.62,2.13.98,4.12,1.45,5.98,3.09,2.02,1.79,4.48,2.86,6.91,3.93Z"/>
    <path class="st4" d="M164.9,49.27c-3.32-.33-7.35.51-11.87,0l-4.74.29c-1.74.11-3.65.65-5.03,1.52-1.87,1.17-2.3,3.76-.79,5.24,2.87,2.82-3.74,2.34-8-1.94-1.39-1.4-2.96-4.1-1.99-5.96,2.92-5.59,13.4-4.71,18.22-5.58,4.18-.75,8.03-.22,12.07-.25l23.43-.17.03,6.61-9.89.2c-3.83.08-8.95.3-11.44.05Z"/>
  </g>
  <g>
    <path class="st4" d="M996.88,188.11h17.12s-.46-17.86-.46-17.86c-.55-4.42.11-8.58.09-12.97-.02-4.22-.72-8.09.02-12.39.24-1.41-.93-3.15.04-4.88.45-.79-.3-2.28-.31-3.15l-.26-18.97c-.03-2.48.11-5.16-.51-7.56l-2.04-7.91c-1.04-4.03-3.91-7.77-5.71-11.68-.77-.44-1.59-1.33-2.24-2.1-4.05-4.78-9.34-8.9-15.41-10.51l-5.72-1.52c-1.93-.51-3.35-.16-5.29-.08l-6.89.28-6.52,2.81c-1.53.66-2.41,1.18-3.72,2.14s-3.23,1.37-3.67,3.38c-2.3.86-3.33,2.7-4.3,4.74s-2.55,3.9-3.2,6.27l-.16,4.08c-1.74,6.08,2.59,18.35,9.51,21.57,2.65,1.23,5,3.08,8.03,3.81,9.36,2.25,20.35-4.13,20.08-13.87-.07-2.51.04-4.75-1.22-7.16-1.57-3.01-4.57-6.04-7.88-7.48-2.95-1.28-6.28-1.27-9.48-1.6-.06-1.72,1.47-2.26,2.61-2.95,4.21-2.56,10.67-2.46,15.29-.22,6.31,3.05,9.04,7.88,10.2,14.67l1.22,7.13.33,20.62c.55,5.88.11,11.53.16,17.4l.2,24.42c.02,2.95-.38,5.68.19,8.67l-.12,2.86Z"/>
    <path class="st4" d="M974.49,188.12h5.8s-.38-16.08-.38-16.08l-.2-5.42-.24-21.04c-.04-3.2-1.31-5.49-2.78-8.16-1.36-2.47-3.57-5.16-6.92-4.51-1.74.33-3.79,2.7-3.8,4.46l-.05,6.9c.93,1.08,1.95-.98,2.59-1.09,2.5-.43,4.4,2.9,4.62,5.39l.72,8.21c.27,3.08.41,5.98.43,9.01l.21,22.33Z"/>
    <path class="st4" d="M924.16,39.19c-6.08-4.47-14.16-5.47-20.07-.68-2.23,1.81-4.37,4.43-4.62,7.15-.29,3.22-1.12,6.26-.22,9.33,3.31,11.26,10.24,15.58,21.08,18.28,1.96.49,3.07.21,5-.12,3.62-.62,7.37-.78,10.66-2.66,2.08-1.18,3.49-3.27,5.31-4.58,2.72-1.96,4.02-4.32,5.23-7.27s3.08-5.79,3.09-9.1v-12.73c0-1.1-1.16-1.98-1.41-2.79-1.84-6-6.39-11.46-11.43-15.24l-4.08-3.06c-4.52-3.39-14.6-6.56-20.24-5.26-1.43.33-2.36-.16-3.7-.16l-26.39-.02c-1.24,0-2.16.08-3.44.05l-10.8-.3c-1.42-.04-2.49-.02-3.91,0l-13.16.3c-2.4.06-4.37.48-6.8-.03l-6.51-.11-.05,16.5,24.62.14c2.53.01,4.67.88,7.32-.14.58-.22,1.97.47,2.76.48l32.15.25c3.17.02,5.95.38,9.14.03,3.77-.42,10.56,1.02,14.09,3.16,2.27,1.37,4.1,3.13,6.03,5.02,5.5,5.39,3.41,15.44-1.1,18.98-3.08,2.42-8.49,4.28-8.84,1.98,4.9-4.12,5.35-13.68.27-17.41Z"/>
    <path class="st4" d="M911.34,111.35c7.17-4.42,13.5-3.74,16.16-7.63.75-1.09,2.14-1.45,3.25-.6,1.43,1.1,2.97,1.23,4.6,1.67,1.86.5,3.45,1.45,5.64.14-2.86-2.26-2.82-4.85-2.35-7.93.34-2.19.08-4.27,1.52-6.3,1.65-2.32,2.73-5.07,4.27-7.5l4.03-6.32,3.34-3.47c2.8-2.91,5.61-5.65,8.59-8.47l8.51-8.05,4.08-3.51c.93-.8,2.15-1.05,2.99-1.72,3.56-2.8,7.95-3.85,11.59-6.03l11.54-6.93c1.21-.73,2.12-2.14,3.35-2.79,2.44-1.28,3.57-3.35,5.15-5.38,4.4-5.64,4.08-12.47-1.89-16.59-.77-.53-2.5-1.16-3.37-1.22-5.41-.37-9.4,2.86-12.49,6.73-1.68,2.11-3.85,3.5-4.68,6.24-.48,1.58-1.87,2.57-2.78,3.85-3.98,5.56-5.74,12.23-8.5,15.76-1.24,1.59-2.73,2.99-3.62,4.84-1.63,3.39-9.42,9.9-13.46,13.66-2.03,1.89-3.61,4.18-6.06,5.85l-11.5,7.84c-5.38,3.67-17.78,8.88-21.92,4.35l-.45-1.2c-.16-.42-1.09-.35-1.42-.04-1.45,1.37,1.53,6.95,3.3,10.55l-3.34,5.23-1.91,5.66c-.93,2.77-1.4,5.45-3.13,7.89-.19.27-.11.82-.09,1.03s.63.62,1.02.38Z"/>
    <path class="st4" d="M955.81,50.94c.01,1.44-1.28,4.91.35,5.22s1.01-3.9,4.09-6.55c.58-2.92,2.25-5.22,3.48-7.83l2.73-5.8,3.92-10.29c.73-1.91.23-4.35.03-6.43-.29-3.03-2.11-6.04-4.89-7.3-2.09-.94-4.87-.17-6.59,1.28-5.31,4.49-4.14,13.07-3.62,20.62l.4,5.76.1,11.31Z"/>
    <path class="st4" d="M966.87,66.16c-.17,4.21,5.26-.51,13.24.54l12.12,1.6c6.07.8,13.21,2.16,17.52-1.89,1.77-1.67,2.36-5.11.79-6.92-3.18-3.68-7.85-4.49-12.29-4.98-4.87-.53-13.4,2.29-18.48,4.62-2.13.98-4.12,1.45-5.98,3.09-2.02,1.79-4.48,2.86-6.91,3.93Z"/>
    <path class="st4" d="M859.1,49.27c3.32-.33,7.35.51,11.87,0l4.74.29c1.74.11,3.65.65,5.03,1.52,1.87,1.17,2.3,3.76.79,5.24-2.87,2.82,3.74,2.34,8-1.94,1.39-1.4,2.96-4.1,1.99-5.96-2.92-5.59-13.4-4.71-18.22-5.58-4.18-.75-8.03-.22-12.07-.25l-23.43-.17-.03,6.61,9.89.2c3.83.08,8.95.3,11.44.05Z"/>
  </g>
  <g>
    <path class="st4" d="M27.12,835.89H10s.46,17.86.46,17.86c.55,4.42-.11,8.58-.09,12.97s.72,8.09-.02,12.39c-.24,1.41.93,3.15-.04,4.88-.45.79.3,2.28.31,3.15l.26,18.97c.03,2.48-.11,5.16.51,7.56l2.04,7.91c1.04,4.03,3.91,7.77,5.71,11.68.77.44,1.59,1.33,2.24,2.1,4.05,4.78,9.34,8.9,15.41,10.51l5.72,1.52c1.93.51,3.35.16,5.29.08l6.89-.28,6.52-2.81c1.53-.66,2.41-1.18,3.72-2.14s3.23-1.37,3.67-3.38c2.3-.86,3.33-2.7,4.3-4.74s2.55-3.9,3.2-6.27l.16-4.08c1.74-6.08-2.59-18.35-9.51-21.57-2.65-1.23-5-3.08-8.03-3.81-9.36-2.25-20.35,4.13-20.08,13.87.07,2.51-.04,4.75,1.22,7.16,1.57,3.01,4.57,6.04,7.88,7.48,2.95,1.28,6.28,1.27,9.48,1.6.06,1.72-1.47,2.26-2.61,2.95-4.21,2.56-10.67,2.46-15.29.22-6.31-3.05-9.04-7.88-10.2-14.67l-1.22-7.13-.33-20.62c-.55-5.88-.11-11.53-.16-17.4l-.2-24.42c-.02-2.95.38-5.68-.19-8.67l.12-2.86Z"/>
    <path class="st4" d="M49.51,835.88h-5.8s.38,16.08.38,16.08l.2,5.42.24,21.04c.04,3.2,1.31,5.49,2.78,8.16,1.36,2.47,3.57,5.16,6.92,4.51,1.74-.33,3.79-2.7,3.8-4.46l.05-6.9c-.93-1.08-1.95.98-2.59,1.09-2.5.43-4.4-2.9-4.62-5.39l-.72-8.21c-.27-3.08-.41-5.98-.43-9.01l-.21-22.33Z"/>
    <path class="st4" d="M99.84,984.81c6.08,4.47,14.16,5.47,20.07.68,2.23-1.81,4.37-4.43,4.62-7.15.29-3.22,1.12-6.26.22-9.33-3.31-11.26-10.24-15.58-21.08-18.28-1.96-.49-3.07-.21-5,.12-3.62.62-7.37.78-10.66,2.66-2.08,1.18-3.49,3.27-5.31,4.58-2.72,1.96-4.02,4.32-5.23,7.27s-3.08,5.79-3.09,9.1v12.73c0,1.1,1.16,1.98,1.41,2.79,1.84,6,6.39,11.46,11.43,15.24l4.08,3.06c4.52,3.39,14.6,6.56,20.24,5.26,1.43-.33,2.36.16,3.7.16l26.39.02c1.24,0,2.16-.08,3.44-.05l10.8.3c1.42.04,2.49.02,3.91,0l13.16-.3c2.4-.06,4.37-.48,6.8.03l6.51.11.05-16.5-24.62-.14c-2.53-.01-4.67-.88-7.32.14-.58.22-1.97-.47-2.76-.48l-32.15-.25c-3.17-.02-5.95-.38-9.14-.03-3.77.42-10.56-1.02-14.09-3.16-2.27-1.37-4.1-3.13-6.03-5.02-5.5-5.39-3.41-15.44,1.1-18.98,3.08-2.42,8.49-4.28,8.84-1.98-4.9,4.12-5.35,13.68-.27,17.41Z"/>
    <path class="st4" d="M112.66,912.65c-7.17,4.42-13.5,3.74-16.16,7.63-.75,1.09-2.14,1.45-3.25.6-1.43-1.1-2.97-1.23-4.6-1.67-1.86-.5-3.45-1.45-5.64-.14,2.86,2.26,2.82,4.85,2.35,7.93-.34,2.19-.08,4.27-1.52,6.3-1.65,2.32-2.73,5.07-4.27,7.5l-4.03,6.32-3.34,3.47c-2.8,2.91-5.61,5.65-8.59,8.47l-8.51,8.05-4.08,3.51c-.93.8-2.15,1.05-2.99,1.72-3.56,2.8-7.95,3.85-11.59,6.03l-11.54,6.93c-1.21.73-2.12,2.14-3.35,2.79-2.44,1.28-3.57,3.35-5.15,5.38-4.4,5.64-4.08,12.47,1.89,16.59.77.53,2.5,1.16,3.37,1.22,5.41.37,9.4-2.86,12.49-6.73,1.68-2.11,3.85-3.5,4.68-6.24.48-1.58,1.87-2.57,2.78-3.85,3.98-5.56,5.74-12.23,8.5-15.76,1.24-1.59,2.73-2.99,3.62-4.84,1.63-3.39,9.42-9.9,13.46-13.66,2.03-1.89,3.61-4.18,6.06-5.85l11.5-7.84c5.38-3.67,17.78-8.88,21.92-4.35l.45,1.2c.16.42,1.09.35,1.42.04,1.45-1.37-1.53-6.95-3.3-10.55l3.34-5.23,1.91-5.66c.93-2.77,1.4-5.45,3.13-7.89.19-.27.11-.82.09-1.03s-.63-.62-1.02-.38Z"/>
    <path class="st4" d="M68.19,973.06c-.01-1.44,1.28-4.91-.35-5.22s-1.01,3.9-4.09,6.55c-.58,2.92-2.25,5.22-3.48,7.83l-2.73,5.8-3.92,10.29c-.73,1.91-.23,4.35-.03,6.43.29,3.03,2.11,6.04,4.89,7.3,2.09.94,4.87.17,6.59-1.28,5.31-4.49,4.14-13.07,3.62-20.62l-.4-5.76-.1-11.31Z"/>
    <path class="st4" d="M57.13,957.84c.17-4.21-5.26.51-13.24-.54l-12.12-1.6c-6.07-.8-13.21-2.16-17.52,1.89-1.77,1.67-2.36,5.11-.79,6.92,3.18,3.68,7.85,4.49,12.29,4.98,4.87.53,13.4-2.29,18.48-4.62,2.13-.98,4.12-1.45,5.98-3.09,2.02-1.79,4.48-2.86,6.91-3.93Z"/>
    <path class="st4" d="M164.9,974.73c-3.32.33-7.35-.51-11.87,0l-4.74-.29c-1.74-.11-3.65-.65-5.03-1.52-1.87-1.17-2.3-3.76-.79-5.24,2.87-2.82-3.74-2.34-8,1.94-1.39,1.4-2.96,4.1-1.99,5.96,2.92,5.59,13.4,4.71,18.22,5.58,4.18.75,8.03.22,12.07.25l23.43.17.03-6.61-9.89-.2c-3.83-.08-8.95-.3-11.44-.05Z"/>
  </g>
  <g>
    <path class="st4" d="M996.88,835.89h17.12s-.46,17.86-.46,17.86c-.55,4.42.11,8.58.09,12.97-.02,4.22-.72,8.09.02,12.39.24,1.41-.93,3.15.04,4.88.45.79-.3,2.28-.31,3.15l-.26,18.97c-.03,2.48.11,5.16-.51,7.56l-2.04,7.91c-1.04,4.03-3.91,7.77-5.71,11.68-.77.44-1.59,1.33-2.24,2.1-4.05,4.78-9.34,8.9-15.41,10.51l-5.72,1.52c-1.93.51-3.35.16-5.29.08l-6.89-.28-6.52-2.81c-1.53-.66-2.41-1.18-3.72-2.14s-3.23-1.37-3.67-3.38c-2.3-.86-3.33-2.7-4.3-4.74s-2.55-3.9-3.2-6.27l-.16-4.08c-1.74-6.08,2.59-18.35,9.51-21.57,2.65-1.23,5-3.08,8.03-3.81,9.36-2.25,20.35,4.13,20.08,13.87-.07,2.51.04,4.75-1.22,7.16-1.57,3.01-4.57,6.04-7.88,7.48-2.95,1.28-6.28,1.27-9.48,1.6-.06,1.72,1.47,2.26,2.61,2.95,4.21,2.56,10.67,2.46,15.29.22,6.31-3.05,9.04-7.88,10.2-14.67l1.22-7.13.33-20.62c.55-5.88.11-11.53.16-17.4l.2-24.42c.02-2.95-.38-5.68.19-8.67l-.12-2.86Z"/>
    <path class="st4" d="M974.49,835.88h5.8s-.38,16.08-.38,16.08l-.2,5.42-.24,21.04c-.04,3.2-1.31,5.49-2.78,8.16-1.36,2.47-3.57,5.16-6.92,4.51-1.74-.33-3.79-2.7-3.8-4.46l-.05-6.9c.93-1.08,1.95.98,2.59,1.09,2.5.43,4.4-2.9,4.62-5.39l.72-8.21c.27-3.08.41-5.98.43-9.01l.21-22.33Z"/>
    <path class="st4" d="M924.16,984.81c-6.08,4.47-14.16,5.47-20.07.68-2.23-1.81-4.37-4.43-4.62-7.15-.29-3.22-1.12-6.26-.22-9.33,3.31-11.26,10.24-15.58,21.08-18.28,1.96-.49,3.07-.21,5,.12,3.62.62,7.37.78,10.66,2.66,2.08,1.18,3.49,3.27,5.31,4.58,2.72,1.96,4.02,4.32,5.23,7.27s3.08,5.79,3.09,9.1v12.73c0,1.1-1.16,1.98-1.41,2.79-1.84,6-6.39,11.46-11.43,15.24l-4.08,3.06c-4.52,3.39-14.6,6.56-20.24,5.26-1.43-.33-2.36.16-3.7.16l-26.39.02c-1.24,0-2.16-.08-3.44-.05l-10.8.3c-1.42.04-2.49.02-3.91,0l-13.16-.3c-2.4-.06-4.37-.48-6.8.03l-6.51.11-.05-16.5,24.62-.14c2.53-.01,4.67-.88,7.32.14.58.22,1.97-.47,2.76-.48l32.15-.25c3.17-.02,5.95-.38,9.14-.03,3.77.42,10.56-1.02,14.09-3.16,2.27-1.37,4.1-3.13,6.03-5.02,5.5-5.39,3.41-15.44-1.1-18.98-3.08-2.42-8.49-4.28-8.84-1.98,4.9,4.12,5.35,13.68.27,17.41Z"/>
    <path class="st4" d="M911.34,912.65c7.17,4.42,13.5,3.74,16.16,7.63.75,1.09,2.14,1.45,3.25.6,1.43-1.1,2.97-1.23,4.6-1.67,1.86-.5,3.45-1.45,5.64-.14-2.86,2.26-2.82,4.85-2.35,7.93.34,2.19.08,4.27,1.52,6.3,1.65,2.32,2.73,5.07,4.27,7.5l4.03,6.32,3.34,3.47c2.8,2.91,5.61,5.65,8.59,8.47l8.51,8.05,4.08,3.51c.93.8,2.15,1.05,2.99,1.72,3.56,2.8,7.95,3.85,11.59,6.03l11.54,6.93c1.21.73,2.12,2.14,3.35,2.79,2.44,1.28,3.57,3.35,5.15,5.38,4.4,5.64,4.08,12.47-1.89,16.59-.77.53-2.5,1.16-3.37,1.22-5.41.37-9.4-2.86-12.49-6.73-1.68-2.11-3.85-3.5-4.68-6.24-.48-1.58-1.87-2.57-2.78-3.85-3.98-5.56-5.74-12.23-8.5-15.76-1.24-1.59-2.73-2.99-3.62-4.84-1.63-3.39-9.42-9.9-13.46-13.66-2.03-1.89-3.61-4.18-6.06-5.85l-11.5-7.84c-5.38-3.67-17.78-8.88-21.92-4.35l-.45,1.2c-.16.42-1.09.35-1.42.04-1.45-1.37,1.53-6.95,3.3-10.55l-3.34-5.23-1.91-5.66c-.93-2.77-1.4-5.45-3.13-7.89-.19-.27-.11-.82-.09-1.03s.63-.62,1.02-.38Z"/>
    <path class="st4" d="M955.81,973.06c.01-1.44-1.28-4.91.35-5.22s1.01,3.9,4.09,6.55c.58,2.92,2.25,5.22,3.48,7.83l2.73,5.8,3.92,10.29c.73,1.91.23,4.35.03,6.43-.29,3.03-2.11,6.04-4.89,7.3-2.09.94-4.87.17-6.59-1.28-5.31-4.49-4.14-13.07-3.62-20.62l.4-5.76.1-11.31Z"/>
    <path class="st4" d="M966.87,957.84c-.17-4.21,5.26.51,13.24-.54l12.12-1.6c6.07-.8,13.21-2.16,17.52,1.89,1.77,1.67,2.36,5.11.79,6.92-3.18,3.68-7.85,4.49-12.29,4.98-4.87.53-13.4-2.29-18.48-4.62-2.13-.98-4.12-1.45-5.98-3.09-2.02-1.79-4.48-2.86-6.91-3.93Z"/>
    <path class="st4" d="M859.1,974.73c3.32.33,7.35-.51,11.87,0l4.74-.29c1.74-.11,3.65-.65,5.03-1.52,1.87-1.17,2.3-3.76.79-5.24-2.87-2.82,3.74-2.34,8,1.94,1.39,1.4,2.96,4.1,1.99,5.96-2.92,5.59-13.4,4.71-18.22,5.58-4.18.75-8.03.22-12.07.25l-23.43.17-.03-6.61,9.89-.2c3.83-.08,8.95-.3,11.44-.05Z"/>
  </g>
  <line class="st2" x1="842.71" y1="1005.7" x2="159.19" y2="1005.7"/>
  <line class="st2" x1="18.3" y1="853.76" x2="18.3" y2="170.24"/>
  <line class="st2" x1="1005.7" y1="871.64" x2="1005.7" y2="188.12"/>
  <line class="st1" x1="977.26" y1="846.64" x2="977.26" y2="164.94"/>
  <line class="st1" x1="176.66" y1="45.74" x2="846.54" y2="45.74"/>
  <line class="st1" x1="176.66" y1="978.27" x2="846.54" y2="978.27"/>
</svg>